# xmcd CD database file
#
# Track frame offsets:
#	150
#	41470
#	85562
#	110890
#	163180
#
# Disc length: 2738 seconds
#
# Revision: 7
# Processed by: cddbd v1.5.2PL0 Copyright (c) Steve Scherf et al.
# Submitted via: CDex 1.51
#
DISCID=370ab005
DTITLE=Miles Davis - Kind Of Blue
DYEAR=1959
DGENRE=Jazz
TTITLE0=So What
TTITLE1=Freddie Freeloader
TTITLE2=Blue In Green
TTITLE3=All Blues
TTITLE4=Flamenco Sketches
EXTD=YEAR: 1959
EXTT0=
EXTT1=
EXTT2=
EXTT3=
EXTT4=
PLAYORDER=
